# This file is brought to you by Roblox Corporation
# Generated by Roblox Studio

mtllib FW border.mtl

g FwBorder1

v 119.005 3.00085 -248.25 
v 119.005 16.0008 -248.25 
v 119.005 3.00085 -249.25 
v 119.005 16.0008 -249.25 
v 203.255 16.0008 -248.25 
v 119.005 16.0008 -248.25 
v 203.255 3.00085 -248.25 
v 119.005 3.00085 -248.25 
v 203.255 16.0008 -249.25 
v 119.005 16.0008 -249.25 
v 203.255 16.0008 -248.25 
v 119.005 16.0008 -248.25 
v 203.255 3.00085 -249.25 
v 119.005 3.00085 -249.25 
v 203.255 16.0008 -249.25 
v 119.005 16.0008 -249.25 
v 203.255 3.00085 -248.25 
v 119.005 3.00085 -248.25 
v 203.255 3.00085 -249.25 
v 119.005 3.00085 -249.25 
v 118.755 2.00102 -305.247 
v 118.755 15.001 -305.247 
v 118.755 2.00102 -306.247 
v 118.755 15.001 -306.247 
v 118.755 2.00102 -306.247 
v 318.753 2.00102 -306.247 
v 118.755 2.00102 -305.247 
v 318.753 2.00102 -305.247 
v 318.753 2.00102 -306.247 
v 318.753 15.001 -306.247 
v 318.753 15.001 -306.247 
v 235.253 15.001 -249.247 
v 235.253 -2.69899 -249.247 
v 235.253 15.001 -248.247 
v 235.253 -2.69899 -248.247 
v 235.253 15.001 -249.247 
v 235.253 15.001 -248.247 
v 319.753 15.001 -249.247 
v 319.753 15.001 -248.247 
v 235.253 15.001 -248.247 
v 235.253 -2.69899 -248.247 
v 319.753 15.001 -248.247 
v 319.753 -2.69899 -248.247 
v 319.753 -2.69899 -248.247 
v 319.753 15.001 -249.247 
v 319.753 15.001 -248.247 
v 319.753 15.001 -249.247 
v 319.753 -2.69899 -249.247 
v 235.253 -2.69899 -248.247 
v 235.253 -2.69899 -249.247 
v 318.753 -2.69899 -249.247 
v 318.753 -2.69899 -249.247 
v 319.753 -2.69899 -248.247 
v 319.753 -2.69899 -249.247 
v 319.753 -20.249 -249.247 
v 319.753 -2.69899 -249.247 
v 318.753 -2.69899 -249.247 
v 319.753 -2.69899 -249.247 
v 318.753 -2.69899 -249.247 
v 318.753 -2.70339 -306.247 
v 318.753 -20.249 -249.247 
v 318.753 -20.249 -306.247 
v 318.753 -20.249 -249.247 
v 319.753 -20.249 -306.247 
v 319.753 -20.249 -249.247 
v 318.753 -20.249 -306.247 
v 318.753 -20.249 -249.247 
v 318.753 15.001 -306.247 
v 318.753 -20.249 -306.247 
v 318.753 -2.70339 -306.247 
v 319.753 15.001 -306.247 
v 318.759 15.001 -306.247 
v 319.753 -20.249 -306.247 
v 319.753 15.001 -306.247 
v 319.753 -20.249 -249.247 
v 319.753 -20.249 -306.247 
v 319.753 15.001 -249.252 
v 319.753 -2.69899 -249.247 
v 319.753 15.001 -249.247 
v 319.753 15.001 -249.247 
v 319.753 15.001 -249.247 
v 319.753 15.001 -249.247 
v 319.753 15.001 -249.247 
v 319.753 15.001 -249.247 
v 319.753 15.001 -249.252 
v 319.753 15.001 -249.247 
v 319.753 15.001 -249.247 
v 318.753 15.001 -249.247 
v 319.753 15.001 -249.247 
v 318.753 15.001 -249.247 
v 318.753 -2.69899 -249.247 
v 235.253 -2.69899 -249.247 
v 235.253 15.001 -249.247 
v 318.753 15.001 -249.247 
v 318.753 -2.69899 -249.247 
v 318.753 2.00102 -305.247 
v 318.753 15.001 -305.247 
v 318.753 15.001 -305.243 
v 319.753 15.001 -306.247 
v 318.759 15.001 -306.247 
v 318.753 15.001 -305.243 
v 318.755 15.001 -305.247 
v 318.753 15.001 -305.247 
v 118.755 2.00102 -305.247 
v 318.753 2.00102 -305.247 
v 118.755 15.001 -305.247 
v 318.753 15.001 -305.247 
v 318.755 15.001 -305.247 
v 318.755 15.001 -305.247 
v 318.755 15.001 -306.247 
v 318.755 15.001 -306.247 
v 318.755 15.001 -306.247 
v 318.755 15.001 -305.247 
v 318.755 15.001 -305.247 
v 118.755 15.001 -305.247 
v 318.755 15.001 -305.247 
v 118.755 15.001 -306.247 
v 318.755 15.001 -306.247 
v 118.755 15.001 -306.247 
v 318.753 15.001 -306.247 
v 118.755 2.00102 -306.247 
v 318.753 2.00102 -306.247 
v 318.753 15.001 -306.247 
v 318.753 15.001 -306.247 
v 203.255 3.00085 -249.25 
v 203.255 16.0008 -249.25 
v 203.255 3.00085 -248.25 
v 203.255 16.0008 -248.25 
v 318.755 15.001 -306.247 
v 318.755 15.001 -306.247 

vn -1 0 0 
vn -1 0 0 
vn -1 0 0 
vn -1 0 0 
vn 0 0 1 
vn 0 0 1 
vn 0 0 1 
vn 0 0 1 
vn 0 1 0 
vn 0 1 0 
vn 0 1 0 
vn 0 1 0 
vn 0 0 -1 
vn 0 0 -1 
vn 0 0 -1 
vn 0 0 -1 
vn 0 -1 0 
vn 0 -1 0 
vn 0 -1 0 
vn 0 -1 0 
vn -1 0 0 
vn -1 0 0 
vn -1 0 0 
vn -1 0 0 
vn 0 -1 0 
vn 0 -1 0 
vn 0 -1 0 
vn 0 -1 0 
vn -1 0 0 
vn -1 0 0 
vn -1 0 0 
vn -1 0 0 
vn -1 0 0 
vn -1 0 0 
vn -1 0 0 
vn 0 1 0 
vn 0 1 0 
vn 0 1 0 
vn 0 1 0 
vn 0 0 1 
vn 0 0 1 
vn 0 0 1 
vn 0 0 1 
vn 1 0 0 
vn 1 0 0 
vn 1 0 0 
vn 1 0 0 
vn 1 0 0 
vn 0 -1 0 
vn 0 -1 0 
vn 0 -1 0 
vn 0 -1 0 
vn 0 -1 0 
vn 0 -1 0 
vn 0 0 1 
vn 0 0 1 
vn 0 0 1 
vn 0 0 1 
vn -1 0 0 
vn -1 0 0 
vn -1 0 0 
vn -1 0 0 
vn 0 0 1 
vn 0 -1 0 
vn 0 -1 0 
vn 0 -1 0 
vn 0 -1 0 
vn 0 0 -1 
vn 0 0 -1 
vn 0 0 -1 
vn 0 0 -1 
vn 0 0 -1 
vn 0 0 -1 
vn 1 0 0 
vn 1 0 0 
vn 1 0 0 
vn 1 0 0 
vn 1 0 0 
vn 1 0 0 
vn 0 0 1 
vn 0 0 1 
vn 1 0 0 
vn 0 1 0 
vn 0 1 0 
vn 0 1 0 
vn 0 1 0 
vn 0 0 -1 
vn 0 0 -1 
vn 0 0 -1 
vn 0 1 0 
vn 0 0 -1 
vn 0 0 -1 
vn 0 0 -1 
vn -1 0 0 
vn -1 0 0 
vn -1 0 0 
vn -1 0 0 
vn -1 0 0 
vn 0 1 0 
vn 0 1 0 
vn 0 1 0 
vn 0 1 0 
vn 0 1 0 
vn 0 0 1 
vn 0 0 1 
vn 0 0 1 
vn 0 0 1 
vn 0 0 1 
vn 0 0 1 
vn 0 1 0 
vn 1 0 0 
vn 1 0 0 
vn 1 0 0 
vn 1 0 0 
vn 0 1 0 
vn 0 1 0 
vn 0 1 0 
vn 0 1 0 
vn 0 0 -1 
vn 0 0 -1 
vn 0 0 -1 
vn 0 0 -1 
vn 0 1 0 
vn 0 1 0 
vn 1 0 0 
vn 1 0 0 
vn 1 0 0 
vn 1 0 0 
vn 0 0 -1 
vn 0 0 -1 

vt 33.3754 -25.6406 
vt 33.3754 -27.2656 
vt 33.5004 -25.6406 
vt 33.5004 -27.2656 
vt 39.2656 -23.0001 
vt 39.2656 -12.4688 
vt 37.6406 -23.0001 
vt 37.6406 -12.4688 
vt 33.5004 -23.0001 
vt 33.5004 -12.4688 
vt 33.3754 -23.0001 
vt 33.3754 -12.4688 
vt 36.3594 -23.0001 
vt 36.3594 -12.4688 
vt 34.7344 -23.0001 
vt 34.7344 -12.4688 
vt 40.6246 -23.0001 
vt 40.6246 -12.4688 
vt 40.4996 -23.0001 
vt 40.4996 -12.4688 
vt 40.5 -25.5156 
vt 40.5 -27.1406 
vt 40.625 -25.5156 
vt 40.625 -27.1406 
vt 33.375 -12.4376 
vt 33.375 -37.4374 
vt 33.5 -12.4376 
vt 33.5 -37.4374 
vt 40.625 -25.5156 
vt 40.625 -27.1406 
vt 40.625 -27.1406 
vt 33.5 -27.1406 
vt 33.5 -24.9281 
vt 33.375 -27.1406 
vt 33.375 -24.9281 
vt 33.5 -26.9999 
vt 33.375 -26.9999 
vt 33.5 -37.5624 
vt 33.375 -37.5624 
vt 39.1406 -26.9999 
vt 36.9281 -26.9999 
vt 39.1406 -37.5624 
vt 36.9281 -37.5624 
vt 40.625 -24.9281 
vt 40.5 -27.1406 
vt 40.625 -27.1406 
vt 40.5 -27.1406 
vt 40.5 -24.9281 
vt 40.625 -26.9999 
vt 40.5 -26.9999 
vt 40.5 -37.4374 
vt 40.5 -37.4374 
vt 40.625 -37.5624 
vt 40.5 -37.5624 
vt 34.7344 -37.5624 
vt 36.9281 -37.5624 
vt 36.9281 -37.4374 
vt 36.9281 -37.5624 
vt 33.5 -24.9281 
vt 40.625 -24.9276 
vt 33.5 -22.7344 
vt 40.625 -22.7344 
vt 34.7344 -37.4374 
vt 33.375 -37.5624 
vt 40.5 -37.5624 
vt 33.375 -37.4374 
vt 40.5 -37.4374 
vt 34.8594 -37.4374 
vt 39.2656 -37.4374 
vt 37.0724 -37.4374 
vt 34.8594 -37.5624 
vt 34.8594 -37.4381 
vt 39.2656 -37.5624 
vt 33.375 -27.1406 
vt 40.5 -22.7344 
vt 33.375 -22.7344 
vt 40.4995 -27.1406 
vt 40.5 -24.9281 
vt 40.5 -27.1406 
vt 39.1406 -37.5624 
vt 39.1406 -37.5624 
vt 40.5 -27.1406 
vt 33.5 -37.5624 
vt 33.5 -37.5624 
vt 33.5005 -37.5624 
vt 33.5 -37.5624 
vt 34.8594 -37.5624 
vt 34.8594 -37.4374 
vt 34.8594 -37.5624 
vt 33.5 -37.4374 
vt 37.0719 -37.4374 
vt 37.0719 -26.9999 
vt 34.8594 -26.9999 
vt 33.5 -27.1406 
vt 33.5 -24.9281 
vt 40.5 -25.5156 
vt 40.5 -27.1406 
vt 40.4994 -27.1406 
vt 40.625 -37.5624 
vt 40.625 -37.4381 
vt 40.4994 -37.4374 
vt 40.5 -37.4376 
vt 40.5 -37.4374 
vt 37.5156 -12.4376 
vt 37.5156 -37.4374 
vt 39.1406 -12.4376 
vt 39.1406 -37.4374 
vt 39.1406 -37.4376 
vt 39.1406 -37.4376 
vt 40.625 -37.4376 
vt 33.375 -27.1406 
vt 33.375 -27.1406 
vt 33.5 -27.1406 
vt 33.5 -27.1406 
vt 40.5 -12.4376 
vt 40.5 -37.4376 
vt 40.625 -12.4376 
vt 40.625 -37.4376 
vt 34.8594 -12.4376 
vt 34.8594 -37.4374 
vt 36.4844 -12.4376 
vt 36.4844 -37.4374 
vt 40.625 -37.4374 
vt 40.625 -37.4374 
vt 40.4996 -25.6406 
vt 40.4996 -27.2656 
vt 40.6246 -25.6406 
vt 40.6246 -27.2656 
vt 34.8594 -37.4376 
vt 34.8594 -37.4376 

usemtl FwBorder1Mtl

f 1/1/1 2/2/2 3/3/3 
f 2/2/2 4/4/4 3/3/3 
f 5/5/5 6/6/6 7/7/7 
f 6/6/6 8/8/8 7/7/7 
f 9/9/9 10/10/10 11/11/11 
f 10/10/10 12/12/12 11/11/11 
f 13/13/13 14/14/14 15/15/15 
f 14/14/14 16/16/16 15/15/15 
f 17/17/17 18/18/18 19/19/19 
f 18/18/18 20/20/20 19/19/19 
f 21/21/21 22/22/22 23/23/23 
f 22/22/22 24/24/24 23/23/23 
f 25/25/25 26/26/26 27/27/27 
f 26/26/26 28/28/28 27/27/27 
f 29/29/29 30/30/30 31/31/31 
f 32/32/32 33/33/33 34/34/34 
f 33/33/33 35/35/35 34/34/34 
f 36/36/36 37/37/37 38/38/38 
f 37/37/37 39/39/39 38/38/38 
f 40/40/40 41/41/41 42/42/42 
f 41/41/41 43/43/43 42/42/42 
f 44/44/44 45/45/45 46/46/46 
f 47/47/47 44/44/44 48/48/48 
f 49/49/49 50/50/50 51/51/51 
f 50/50/50 52/52/52 51/51/51 
f 49/49/49 51/51/51 53/53/53 
f 51/51/51 54/54/54 53/53/53 
f 55/55/55 56/56/56 57/57/57 
f 56/56/56 58/58/58 57/57/57 
f 59/59/59 60/60/60 61/61/61 
f 60/60/60 62/62/62 61/61/61 
f 57/57/57 63/63/63 55/55/55 
f 64/64/64 65/65/65 66/66/66 
f 65/65/65 67/67/67 66/66/66 
f 68/68/68 69/69/69 70/70/70 
f 68/68/68 71/71/71 69/69/69 
f 72/72/72 71/71/71 68/68/68 
f 71/71/71 73/73/73 69/69/69 
f 74/74/74 75/75/75 76/76/76 
f 74/74/74 77/77/77 75/75/75 
f 77/77/77 78/78/78 75/75/75 
f 77/77/77 79/79/79 78/78/78 
f 58/58/58 56/56/56 80/80/80 
f 56/56/56 81/81/81 80/80/80 
f 44/44/44 47/47/47 45/45/45 
f 47/47/47 82/82/82 45/45/45 
f 83/83/83 84/84/84 85/85/85 
f 84/84/84 86/86/86 85/85/85 
f 87/87/87 88/88/88 89/89/89 
f 83/83/83 85/85/85 90/90/90 
f 91/91/91 92/92/92 88/88/88 
f 92/92/92 93/93/93 88/88/88 
f 93/93/93 89/89/89 88/88/88 
f 94/94/94 60/60/60 95/95/95 
f 60/60/60 59/59/59 95/95/95 
f 94/94/94 96/96/96 60/60/60 
f 96/96/96 29/29/29 60/60/60 
f 29/29/29 31/31/31 60/60/60 
f 96/96/96 94/94/94 97/97/97 
f 94/94/94 98/98/98 97/97/97 
f 85/85/85 99/99/99 100/100/100 
f 85/85/85 101/101/101 90/90/90 
f 85/85/85 102/102/102 101/101/101 
f 102/102/102 103/103/103 101/101/101 
f 104/104/104 105/105/105 106/106/106 
f 105/105/105 107/107/107 106/106/106 
f 107/107/107 108/108/108 106/106/106 
f 108/108/108 109/109/109 106/106/106 
f 102/102/102 85/85/85 110/110/110 
f 85/85/85 100/100/100 110/110/110 
f 111/111/111 112/112/112 113/113/113 
f 112/112/112 114/114/114 113/113/113 
f 115/115/115 116/116/116 117/117/117 
f 116/116/116 118/118/118 117/117/117 
f 119/119/119 120/120/120 121/121/121 
f 120/120/120 122/122/122 121/121/121 
f 100/100/100 123/123/123 110/110/110 
f 123/123/123 124/124/124 110/110/110 
f 125/125/125 126/126/126 127/127/127 
f 126/126/126 128/128/128 127/127/127 
f 120/120/120 119/119/119 129/129/129 
f 119/119/119 130/130/130 129/129/129 

