# This file is brought to you by Roblox Corporation
# Generated by Roblox Studio

mtllib fw platform.mtl

g Union1

v 244.5 2.99998 -288.25 
v 244.5 10.5 -288.25 
v 244.5 2.99998 -287.25 
v 244.5 10.5 -287.25 
v 244.5 10.5 -288.25 
v 198 10.5 -288.25 
v 244.5 10.5 -287.25 
v 198 10.5 -287.25 
v 198 2.99998 -288.25 
v 198 10.5 -288.25 
v 244.5 2.99998 -288.25 
v 244.5 10.5 -288.25 
v 244.5 2.99998 -269.25 
v 244.5 10.5 -269.25 
v 244.5 2.99998 -268.25 
v 244.5 10.5 -268.25 
v 244.5 10.5 -269.25 
v 198 10.5 -269.25 
v 244.5 10.5 -268.25 
v 198 10.5 -268.25 
v 244.5 2.99998 -268.25 
v 244.5 10.5 -268.25 
v 198 2.99998 -268.25 
v 198 10.5 -268.25 
v 198 7.99998 -269.25 
v 198 2.99998 -269.25 
v 198 2.99998 -269.246 
v 198 2.99998 -269.246 
v 198 2.99998 -269.25 
v 199 2.99998 -269.25 
v 198 7.99998 -269.25 
v 199 2.99998 -269.25 
v 199 2.99998 -269.25 
v 199 2.99998 -287.25 
v 199 2.99998 -269.25 
v 199 2.99998 -269.25 
v 198 2.99998 -269.25 
v 199 2.99998 -269.25 
v 198 2.99998 -269.25 
v 199 7.99998 -269.25 
v 199 7.99998 -287.25 
v 198 7.99998 -269.25 
v 198 7.99998 -269.25 
v 198 7.99998 -287.25 
v 199 7.99998 -269.25 
v 199 7.99998 -287.25 
v 198 7.99998 -269.25 
v 198 7.99998 -269.25 
v 198 7.99998 -269.25 
v 198 2.99998 -287.25 
v 198 2.99998 -269.25 
v 198 7.99998 -269.25 
v 198 7.99998 -287.25 
v 198 2.99998 -287.25 
v 198 7.99998 -287.25 
v 199 2.99998 -287.25 
v 199 7.99998 -287.25 
v 199 2.99998 -269.25 
v 198 2.99998 -269.25 
v 199 2.99998 -287.25 
v 198 2.99998 -287.25 
v 198 8.00434 -287.25 
v 198 2.99998 -287.254 
v 198 2.99998 -287.25 
v 199 7.99998 -269.25 
v 244.5 10.5 -269.25 
v 199 2.99998 -269.25 
v 244.5 2.99998 -269.25 
v 198 2.99998 -268.25 
v 244.5 2.99998 -268.25 
v 199 2.99998 -269.25 
v 244.5 2.99998 -269.25 
v 244.5 10.5 -287.25 
v 198 10.5 -287.25 
v 244.5 2.99998 -287.25 
v 198 2.99998 -287.25 
v 198 2.99998 -287.25 
v 198 2.99998 -287.254 
v 244.5 2.99998 -287.25 
v 244.5 2.99998 -288.25 
v 198 7.99998 -269.25 
v 198 10.5 -269.25 
v 198 10.5 -268.25 
v 198 10.5 -269.25 
v 198 10.5 -287.25 
v 198 10.5 -288.25 
v 198 2.99998 -288.25 
v 198 8.00434 -287.25 
v 198 2.99998 -268.25 
v 198 2.99998 -288.25 

vn 1 0 0 
vn 1 0 0 
vn 1 0 0 
vn 1 0 0 
vn 0 1 0 
vn 0 1 0 
vn 0 1 0 
vn 0 1 0 
vn 0 0 -1 
vn 0 0 -1 
vn 0 0 -1 
vn 0 0 -1 
vn 1 0 0 
vn 1 0 0 
vn 1 0 0 
vn 1 0 0 
vn 0 1 0 
vn 0 1 0 
vn 0 1 0 
vn 0 1 0 
vn 0 0 1 
vn 0 0 1 
vn 0 0 1 
vn 0 0 1 
vn -1 0 0 
vn -1 0 0 
vn -1 0 0 
vn 0 -1 0 
vn 0 -1 0 
vn 0 -1 0 
vn -1 0 0 
vn 1 0 0 
vn 1 0 0 
vn 1 0 0 
vn 1 0 0 
vn 0 0 1 
vn 0 0 1 
vn 0 0 1 
vn 0 0 1 
vn 1 0 0 
vn 1 0 0 
vn 0 1 0 
vn 0 1 0 
vn 0 1 0 
vn 0 1 0 
vn 0 1 0 
vn 0 1 0 
vn 0 0 1 
vn 0 0 1 
vn -1 0 0 
vn -1 0 0 
vn -1 0 0 
vn -1 0 0 
vn 0 0 -1 
vn 0 0 -1 
vn 0 0 -1 
vn 0 0 -1 
vn 0 -1 0 
vn 0 -1 0 
vn 0 -1 0 
vn 0 -1 0 
vn -1 0 0 
vn -1 0 0 
vn -1 0 0 
vn 0 0 -1 
vn 0 0 -1 
vn 0 0 -1 
vn 0 0 -1 
vn 0 -1 0 
vn 0 -1 0 
vn 0 -1 0 
vn 0 -1 0 
vn 0 0 1 
vn 0 0 1 
vn 0 0 1 
vn 0 0 1 
vn 0 -1 0 
vn 0 -1 0 
vn 0 -1 0 
vn 0 -1 0 
vn 0 0 -1 
vn 0 0 -1 
vn -1 0 0 
vn -1 0 0 
vn -1 0 0 
vn -1 0 0 
vn -1 0 0 
vn 0 0 1 
vn -1 0 0 
vn 0 -1 0 

vt 31.25 -37.4688 
vt 31.25 -36.5312 
vt 31.125 -37.4688 
vt 31.125 -36.5312 
vt 31.25 -39.9062 
vt 31.25 -34.0938 
vt 31.125 -39.9062 
vt 31.125 -34.0938 
vt 30.4688 -34.0938 
vt 29.5312 -34.0938 
vt 30.4688 -39.9062 
vt 29.5312 -39.9062 
vt 28.875 -37.4688 
vt 28.875 -36.5312 
vt 28.75 -37.4688 
vt 28.75 -36.5312 
vt 28.875 -39.9062 
vt 28.875 -34.0938 
vt 28.75 -39.9062 
vt 28.75 -34.0938 
vt 29.5312 -39.9062 
vt 30.4688 -39.9062 
vt 29.5312 -34.0938 
vt 30.4688 -34.0938 
vt 31.125 -36.8438 
vt 31.125 -37.4688 
vt 31.1255 -37.4688 
vt 31.1255 -34.0938 
vt 31.125 -34.0938 
vt 31.125 -34.2188 
vt 31.125 -36.8438 
vt 28.875 -37.4688 
vt 28.875 -37.4688 
vt 31.125 -37.4688 
vt 28.875 -37.4688 
vt 29.5312 -34.2188 
vt 29.5312 -34.0938 
vt 29.5312 -34.2188 
vt 29.5312 -34.0938 
vt 28.875 -36.8438 
vt 31.125 -36.8438 
vt 28.875 -34.0938 
vt 28.875 -34.0938 
vt 31.125 -34.0938 
vt 28.875 -34.2188 
vt 31.125 -34.2188 
vt 28.875 -34.0938 
vt 30.1562 -34.0938 
vt 30.1562 -34.0938 
vt 28.875 -37.4688 
vt 31.125 -37.4688 
vt 31.125 -36.8438 
vt 28.875 -36.8438 
vt 30.4688 -34.0938 
vt 29.8438 -34.0938 
vt 30.4688 -34.2188 
vt 29.8438 -34.2188 
vt 31.125 -34.2188 
vt 31.125 -34.0938 
vt 28.875 -34.2188 
vt 28.875 -34.0938 
vt 28.875 -36.8432 
vt 28.8745 -37.4688 
vt 28.875 -37.4688 
vt 29.8438 -34.2188 
vt 29.5312 -39.9062 
vt 30.4688 -34.2188 
vt 30.4688 -39.9062 
vt 31.25 -34.0938 
vt 31.25 -39.9062 
vt 31.125 -34.2188 
vt 31.125 -39.9062 
vt 30.4688 -39.9062 
vt 30.4688 -34.0938 
vt 29.5312 -39.9062 
vt 29.5312 -34.0938 
vt 28.875 -34.0938 
vt 28.8745 -34.0938 
vt 28.875 -39.9062 
vt 28.75 -39.9062 
vt 29.8438 -34.0938 
vt 29.5312 -34.0938 
vt 31.25 -36.5312 
vt 31.125 -36.5312 
vt 28.875 -36.5312 
vt 28.75 -36.5312 
vt 28.75 -37.4688 
vt 30.1568 -34.0938 
vt 31.25 -37.4688 
vt 28.75 -34.0938 

usemtl Union1Mtl

f 1/1/1 2/2/2 3/3/3 
f 2/2/2 4/4/4 3/3/3 
f 5/5/5 6/6/6 7/7/7 
f 6/6/6 8/8/8 7/7/7 
f 9/9/9 10/10/10 11/11/11 
f 10/10/10 12/12/12 11/11/11 
f 13/13/13 14/14/14 15/15/15 
f 14/14/14 16/16/16 15/15/15 
f 17/17/17 18/18/18 19/19/19 
f 18/18/18 20/20/20 19/19/19 
f 21/21/21 22/22/22 23/23/23 
f 22/22/22 24/24/24 23/23/23 
f 25/25/25 26/26/26 27/27/27 
f 28/28/28 29/29/29 30/30/30 
f 25/25/25 27/27/27 31/31/31 
f 32/32/32 33/33/33 34/34/34 
f 33/33/33 35/35/35 34/34/34 
f 36/36/36 37/37/37 38/38/38 
f 37/37/37 39/39/39 38/38/38 
f 32/32/32 34/34/34 40/40/40 
f 34/34/34 41/41/41 40/40/40 
f 42/42/42 43/43/43 44/44/44 
f 43/43/43 45/45/45 44/44/44 
f 45/45/45 46/46/46 44/44/44 
f 43/43/43 42/42/42 47/47/47 
f 37/37/37 48/48/48 39/39/39 
f 48/48/48 49/49/49 39/39/39 
f 50/50/50 51/51/51 52/52/52 
f 52/52/52 53/53/53 50/50/50 
f 54/54/54 55/55/55 56/56/56 
f 55/55/55 57/57/57 56/56/56 
f 58/58/58 59/59/59 60/60/60 
f 59/59/59 61/61/61 60/60/60 
f 62/62/62 63/63/63 64/64/64 
f 65/65/65 66/66/66 67/67/67 
f 66/66/66 68/68/68 67/67/67 
f 69/69/69 30/30/30 70/70/70 
f 30/30/30 71/71/71 70/70/70 
f 71/71/71 72/72/72 70/70/70 
f 73/73/73 74/74/74 75/75/75 
f 74/74/74 76/76/76 75/75/75 
f 77/77/77 78/78/78 79/79/79 
f 78/78/78 80/80/80 79/79/79 
f 81/81/81 82/82/82 65/65/65 
f 82/82/82 66/66/66 65/65/65 
f 27/27/27 83/83/83 31/31/31 
f 83/83/83 84/84/84 31/31/31 
f 85/85/85 86/86/86 62/62/62 
f 86/86/86 87/87/87 62/62/62 
f 76/76/76 74/74/74 88/88/88 
f 83/83/83 27/27/27 89/89/89 
f 30/30/30 69/69/69 28/28/28 
f 78/78/78 90/90/90 80/80/80 
f 62/62/62 87/87/87 63/63/63 

g Union2

v 238.5 6.99998 -287.25 
v 199 6.99998 -287.25 
v 238.5 6.99998 -269.25 
v 199 6.99998 -269.25 
v 199 2.99998 -287.25 
v 199 6.99998 -287.25 
v 238.5 2.99998 -287.25 
v 238.5 6.99998 -287.25 
v 199 2.99998 -269.25 
v 199 6.99998 -269.25 
v 199 2.99998 -287.25 
v 199 6.99998 -287.25 
v 238.5 2.99998 -269.25 
v 238.5 6.99998 -269.25 
v 199 2.99998 -269.25 
v 199 6.99998 -269.25 
v 238.5 2.99998 -287.25 
v 238.5 6.99998 -287.25 
v 238.5 2.99998 -269.25 
v 238.5 6.99998 -269.25 
v 238.5 2.99998 -269.25 
v 238.5 6.24998 -269.25 
v 238.5 2.99998 -287.25 
v 238.5 6.24998 -287.25 
v 239.5 6.24998 -269.25 
v 238.5 6.24998 -269.25 
v 238.5 2.99998 -269.25 
v 239.5 6.24998 -287.25 
v 238.5 6.24998 -287.25 
v 239.5 6.24998 -269.25 
v 238.5 6.24998 -269.25 
v 239.5 5.50434 -287.25 
v 239.5 6.24998 -287.25 
v 239.5 6.24998 -269.25 
v 242.5 2.99998 -269.25 
v 243.5 3.24998 -269.25 
v 242.5 3.24998 -269.25 
v 243.5 2.99998 -269.25 
v 242.5 2.99998 -269.25 
v 243.5 2.99998 -287.25 
v 243.5 2.99998 -269.25 
v 243.5 2.99998 -287.25 
v 243.5 3.24998 -287.25 
v 243.5 2.99998 -269.25 
v 243.5 3.24998 -269.25 
v 243.5 3.24998 -287.25 
v 242.5 3.24998 -287.25 
v 243.5 3.24998 -269.25 
v 242.5 3.24998 -269.25 
v 242.5 3.25434 -287.25 
v 242.5 3.99998 -287.25 
v 242.5 3.25434 -269.25 
v 242.5 3.99998 -269.25 
v 242.496 3.99998 -269.25 
v 242.5 3.99998 -269.25 
v 242.5 3.99998 -287.25 
v 242.5 2.99998 -287.25 
v 242.5 3.24998 -287.25 
v 243.5 2.99998 -287.25 
v 243.5 3.24998 -287.25 
v 242.5 3.24998 -269.25 
v 242.5 3.24998 -287.25 
v 242.5 3.24998 -287.25 
v 242.5 2.99998 -287.25 
v 242.5 3.25434 -287.25 
v 242.5 2.99998 -269.25 
v 242.5 3.24998 -269.25 
v 242.496 2.99998 -269.25 
v 242.5 3.25434 -269.25 
v 242.5 3.99998 -269.25 
v 242.5 2.99998 -287.25 
v 242.5 2.99998 -269.25 
v 242.496 2.99998 -269.25 
v 242.5 2.99998 -287.25 
v 242.5 3.99998 -287.25 
v 241.5 3.99998 -287.25 
v 241.5 2.99998 -287.25 
v 241.5 2.99998 -287.25 
v 241.5 2.99998 -269.25 
v 242.496 3.99998 -269.25 
v 241.5 2.99998 -269.25 
v 241.496 2.99998 -269.25 
v 241.5 2.99998 -287.25 
v 241.5 3.99998 -269.25 
v 241.5 2.99998 -269.25 
v 241.5 2.99998 -287.25 
v 241.5 2.99998 -269.25 
v 241.5 2.99998 -287.25 
v 241.5 2.99998 -269.25 
v 241.5 4.00434 -269.25 
v 241.5 2.99998 -269.25 
v 241.5 3.99998 -269.25 
v 241.496 2.99998 -269.25 
v 241.5 2.99998 -269.25 
v 241.5 4.00434 -287.25 
v 241.5 3.99998 -287.25 
v 241.5 2.99998 -287.25 
v 241.5 2.99998 -287.25 
v 241.5 3.99998 -287.25 
v 241.5 3.99998 -269.25 
v 241.5 3.99998 -287.25 
v 241.5 4.00434 -287.25 
v 241.5 3.99998 -269.25 
v 241.5 4.00434 -269.25 
v 241.5 4.74998 -287.25 
v 241.5 4.74998 -269.25 
v 241.5 4.74998 -269.25 
v 241.5 4.74998 -287.25 
v 240.504 2.99998 -287.25 
v 240.5 4.74998 -269.25 
v 241.5 4.74998 -269.25 
v 241.5 4.74998 -287.25 
v 240.5 4.74998 -287.25 
v 240.5 4.74998 -269.25 
v 240.5 2.99998 -269.25 
v 240.5 2.99998 -269.25 
v 240.504 2.99998 -287.25 
v 240.5 2.99998 -287.25 
v 240.5 2.99998 -269.25 
v 240.496 2.99998 -269.25 
v 240.5 2.99998 -287.25 
v 239.504 2.99998 -287.25 
v 240.5 2.99998 -287.25 
v 240.5 2.99998 -269.25 
v 240.5 2.99998 -287.25 
v 240.5 2.99998 -269.25 
v 240.5 4.74998 -287.25 
v 240.5 2.99998 -287.25 
v 240.5 4.75434 -287.25 
v 240.5 4.74998 -287.25 
v 239.504 2.99998 -287.25 
v 240.5 2.99998 -287.25 
v 240.5 2.99998 -287.25 
v 240.5 5.49998 -287.25 
v 240.5 4.74998 -287.25 
v 240.5 4.75434 -287.25 
v 240.5 4.74998 -269.25 
v 240.5 4.75434 -269.25 
v 240.5 5.49998 -287.25 
v 240.5 5.49998 -269.25 
v 240.5 4.75434 -269.25 
v 240.5 5.49998 -269.25 
v 239.504 2.99998 -269.25 
v 240.5 2.99998 -269.25 
v 240.5 2.99998 -269.25 
v 240.5 4.74998 -269.25 
v 240.496 2.99998 -269.25 
v 239.5 2.99998 -269.25 
v 239.5 5.49998 -269.25 
v 239.5 2.99998 -269.25 
v 239.504 2.99998 -269.25 
v 239.5 2.99998 -269.25 
v 239.5 2.99998 -287.25 
v 239.5 2.99998 -287.25 
v 239.5 2.99998 -287.25 
v 240.5 5.49998 -287.25 
v 239.5 5.49998 -287.25 
v 240.5 5.49998 -269.25 
v 239.5 5.49998 -269.25 
v 239.5 5.49998 -287.25 
v 239.5 5.49998 -287.25 
v 239.5 5.49998 -269.25 
v 238.5 6.24998 -287.25 
v 239.5 6.24998 -287.25 
v 238.5 2.99998 -287.25 
v 239.5 5.50434 -287.25 
v 239.5 5.49998 -287.25 
v 239.5 2.99998 -287.25 
v 239.5 5.49998 -269.25 
v 239.5 2.99998 -269.25 
v 239.5 2.99998 -269.25 
v 239.5 2.99998 -287.25 
v 239.5 2.99998 -269.25 
v 239.5 2.99998 -287.25 
v 238.5 2.99998 -269.25 
v 199 2.99998 -269.25 
v 238.5 2.99998 -287.25 
v 199 2.99998 -287.25 
v 239.5 2.99998 -269.25 
v 238.5 2.99998 -269.25 
v 239.5 2.99998 -287.25 
v 238.5 2.99998 -287.25 

vn 0 1 0 
vn 0 1 0 
vn 0 1 0 
vn 0 1 0 
vn 0 0 -1 
vn 0 0 -1 
vn 0 0 -1 
vn 0 0 -1 
vn -1 0 0 
vn -1 0 0 
vn -1 0 0 
vn -1 0 0 
vn 0 0 1 
vn 0 0 1 
vn 0 0 1 
vn 0 0 1 
vn 1 0 0 
vn 1 0 0 
vn 1 0 0 
vn 1 0 0 
vn -1 0 0 
vn -1 0 0 
vn -1 0 0 
vn -1 0 0 
vn 0 0 1 
vn 0 0 1 
vn 0 0 1 
vn 0 1 0 
vn 0 1 0 
vn 0 1 0 
vn 0 1 0 
vn 1 0 0 
vn 1 0 0 
vn 1 0 0 
vn 0 0 1 
vn 0 0 1 
vn 0 0 1 
vn 0 0 1 
vn 0 -1 0 
vn 0 -1 0 
vn 0 -1 0 
vn 1 0 0 
vn 1 0 0 
vn 1 0 0 
vn 1 0 0 
vn 0 1 0 
vn 0 1 0 
vn 0 1 0 
vn 0 1 0 
vn 1 0 0 
vn 1 0 0 
vn 1 0 0 
vn 1 0 0 
vn 0 1 0 
vn 0 1 0 
vn 0 1 0 
vn 0 0 -1 
vn 0 0 -1 
vn 0 0 -1 
vn 0 0 -1 
vn 1 0 0 
vn 1 0 0 
vn 0 0 -1 
vn 0 0 -1 
vn 0 0 -1 
vn 0 0 1 
vn 0 0 1 
vn 0 0 1 
vn 0 0 1 
vn 0 0 1 
vn 0 -1 0 
vn 0 -1 0 
vn 0 -1 0 
vn 0 -1 0 
vn 0 0 -1 
vn 0 0 -1 
vn 0 0 -1 
vn 0 -1 0 
vn 0 -1 0 
vn 0 0 1 
vn 0 -1 0 
vn 0 -1 0 
vn 0 -1 0 
vn 0 0 1 
vn 0 0 1 
vn 1 0 0 
vn 1 0 0 
vn 1 0 0 
vn 1 0 0 
vn 0 0 1 
vn 0 0 1 
vn 0 0 1 
vn 0 0 1 
vn 0 0 1 
vn 0 0 -1 
vn 0 0 -1 
vn 0 0 -1 
vn 0 0 -1 
vn 0 1 0 
vn 0 1 0 
vn 1 0 0 
vn 1 0 0 
vn 1 0 0 
vn 1 0 0 
vn 1 0 0 
vn 1 0 0 
vn 0 0 1 
vn 0 0 -1 
vn 0 0 -1 
vn 0 1 0 
vn 0 1 0 
vn 0 1 0 
vn 0 1 0 
vn 0 0 1 
vn 0 0 1 
vn 0 -1 0 
vn 0 -1 0 
vn 0 -1 0 
vn 0 -1 0 
vn 0 -1 0 
vn 0 -1 0 
vn 0 -1 0 
vn 1 0 0 
vn 1 0 0 
vn 1 0 0 
vn 1 0 0 
vn 0 0 -1 
vn 0 0 -1 
vn 0 0 -1 
vn 0 0 -1 
vn 0 0 -1 
vn 0 0 -1 
vn 0 0 -1 
vn 0 0 -1 
vn 1 0 0 
vn 1 0 0 
vn 1 0 0 
vn 1 0 0 
vn 1 0 0 
vn 1 0 0 
vn 0 0 1 
vn 0 0 1 
vn 0 0 1 
vn 0 0 1 
vn 0 0 1 
vn 0 0 1 
vn 0 0 1 
vn 0 0 1 
vn 0 0 1 
vn 0 0 1 
vn 0 -1 0 
vn 0 -1 0 
vn 0 -1 0 
vn 0 0 -1 
vn 0 0 -1 
vn 0 1 0 
vn 0 1 0 
vn 0 1 0 
vn 0 1 0 
vn 0 0 -1 
vn 1 0 0 
vn 1 0 0 
vn 0 0 -1 
vn 0 0 -1 
vn 0 0 -1 
vn 0 0 -1 
vn 0 0 -1 
vn 0 0 -1 
vn 0 0 1 
vn 0 0 1 
vn -1 0 0 
vn -1 0 0 
vn -1 0 0 
vn -1 0 0 
vn 0 -1 0 
vn 0 -1 0 
vn 0 -1 0 
vn 0 -1 0 
vn 0 -1 0 
vn 0 -1 0 
vn 0 -1 0 
vn 0 -1 0 

vt -7.10917 -24.3013 
vt -7.10917 -19.3638 
vt -9.35917 -24.3013 
vt -9.35917 -19.3638 
vt -7.98417 -19.3638 
vt -8.48417 -19.3638 
vt -7.98417 -24.3013 
vt -8.48417 -24.3013 
vt -7.10916 -22.395 
vt -7.10916 -21.895 
vt -9.35917 -22.395 
vt -9.35917 -21.895 
vt -8.48417 -24.3013 
vt -7.98417 -24.3013 
vt -8.48417 -19.3638 
vt -7.98417 -19.3638 
vt -7.10917 -22.395 
vt -7.10917 -21.895 
vt -9.35917 -22.395 
vt -9.35917 -21.895 
vt -7.10917 -22.395 
vt -7.10917 -21.9888 
vt -9.35916 -22.395 
vt -9.35916 -21.9888 
vt -8.07792 -24.4263 
vt -8.07792 -24.3013 
vt -8.48417 -24.3013 
vt -7.10917 -24.4263 
vt -7.10917 -24.3013 
vt -9.35917 -24.4263 
vt -9.35917 -24.3013 
vt -7.10917 -22.082 
vt -7.10917 -21.9888 
vt -9.35917 -21.9888 
vt -8.48417 -24.8013 
vt -8.45292 -24.9263 
vt -8.45292 -24.8013 
vt -8.48417 -24.9263 
vt -7.10917 -24.8013 
vt -9.35917 -24.9263 
vt -7.10917 -24.9263 
vt -7.10917 -22.395 
vt -7.10917 -22.3638 
vt -9.35917 -22.395 
vt -9.35917 -22.3638 
vt -7.10917 -24.9263 
vt -7.10917 -24.8013 
vt -9.35917 -24.9263 
vt -9.35917 -24.8013 
vt -7.10917 -22.3632 
vt -7.10917 -22.27 
vt -9.35917 -22.3632 
vt -9.35917 -22.27 
vt -9.35917 -24.8007 
vt -9.35917 -24.8013 
vt -7.10917 -24.8013 
vt -7.98417 -24.8013 
vt -8.01542 -24.8013 
vt -7.98417 -24.9263 
vt -8.01542 -24.9263 
vt -9.35917 -22.3638 
vt -7.10917 -22.3638 
vt -8.01542 -24.8013 
vt -7.98417 -24.8013 
vt -8.01596 -24.8013 
vt -8.48417 -24.8013 
vt -8.45292 -24.8013 
vt -8.48417 -24.8007 
vt -8.45237 -24.8013 
vt -8.35917 -24.8013 
vt -9.35917 -24.8013 
vt -7.10917 -24.8013 
vt -7.10917 -24.8007 
vt -9.35917 -24.8013 
vt -8.10917 -24.8013 
vt -8.10917 -24.6763 
vt -7.98417 -24.6763 
vt -9.35917 -24.6763 
vt -7.10917 -24.6763 
vt -8.35917 -24.8007 
vt -7.10916 -24.6763 
vt -7.10916 -24.6757 
vt -9.35917 -24.6763 
vt -8.35917 -24.6763 
vt -8.48417 -24.6763 
vt -7.10917 -22.395 
vt -9.35917 -22.395 
vt -7.10917 -22.395 
vt -9.35917 -22.395 
vt -8.35862 -24.6763 
vt -8.48417 -24.6763 
vt -8.35917 -24.6763 
vt -8.48417 -24.6757 
vt -8.48417 -24.6763 
vt -8.10971 -24.6763 
vt -8.10917 -24.6763 
vt -7.98417 -24.6763 
vt -7.98417 -24.6763 
vt -7.10917 -24.6763 
vt -9.35917 -24.6763 
vt -7.10917 -22.27 
vt -7.10917 -22.2695 
vt -9.35917 -22.27 
vt -9.35917 -22.2695 
vt -7.10917 -22.1763 
vt -9.35917 -22.1763 
vt -8.26542 -24.6763 
vt -8.20292 -24.6763 
vt -7.98417 -24.5518 
vt -9.35917 -24.5513 
vt -9.35917 -24.6763 
vt -7.10917 -24.6763 
vt -7.10917 -24.5513 
vt -8.26542 -24.5513 
vt -8.48417 -24.5513 
vt -7.10916 -24.5513 
vt -9.35917 -24.5518 
vt -9.35917 -24.5513 
vt -7.10916 -24.5513 
vt -7.10916 -24.5507 
vt -9.35917 -24.5513 
vt -9.35917 -24.4268 
vt -7.10917 -22.395 
vt -9.35917 -22.395 
vt -7.10917 -22.395 
vt -9.35917 -22.395 
vt -8.20292 -24.5513 
vt -7.98417 -24.5513 
vt -8.20346 -24.5513 
vt -8.20292 -24.5513 
vt -7.98417 -24.4268 
vt -7.98417 -24.5513 
vt -7.98417 -24.5513 
vt -8.29667 -24.5513 
vt -7.10917 -22.1763 
vt -7.10917 -22.1757 
vt -9.35917 -22.1763 
vt -9.35917 -22.1757 
vt -7.10917 -22.0825 
vt -9.35917 -22.0825 
vt -8.26487 -24.5513 
vt -8.17167 -24.5513 
vt -8.48417 -24.4268 
vt -8.48417 -24.5513 
vt -8.48417 -24.5513 
vt -8.26542 -24.5513 
vt -8.48417 -24.5507 
vt -8.48417 -24.4263 
vt -8.17167 -24.4263 
vt -8.48417 -24.4263 
vt -7.10916 -24.4268 
vt -7.10916 -24.4263 
vt -9.35917 -24.4263 
vt -7.98417 -24.4263 
vt -7.98417 -24.4263 
vt -7.10917 -24.5513 
vt -7.10917 -24.4263 
vt -9.35917 -24.5513 
vt -9.35917 -24.4263 
vt -8.29667 -24.4263 
vt -7.10917 -22.0825 
vt -9.35917 -22.0825 
vt -8.39042 -24.3013 
vt -8.39042 -24.4263 
vt -7.98417 -24.3013 
vt -8.29721 -24.4263 
vt -8.29667 -24.4263 
vt -7.98417 -24.4263 
vt -8.17167 -24.4263 
vt -8.48417 -24.4263 
vt -7.10917 -22.395 
vt -9.35916 -22.395 
vt -7.10916 -22.395 
vt -9.35917 -22.395 
vt -7.10916 -24.3013 
vt -7.10916 -19.3638 
vt -9.35917 -24.3013 
vt -9.35917 -19.3638 
vt -7.10917 -24.4263 
vt -7.10917 -24.3013 
vt -9.35916 -24.4263 
vt -9.35916 -24.3013 

usemtl Union2Mtl

f 91/91/91 92/92/92 93/93/93 
f 92/92/92 94/94/94 93/93/93 
f 95/95/95 96/96/96 97/97/97 
f 96/96/96 98/98/98 97/97/97 
f 99/99/99 100/100/100 101/101/101 
f 100/100/100 102/102/102 101/101/101 
f 103/103/103 104/104/104 105/105/105 
f 104/104/104 106/106/106 105/105/105 
f 107/107/107 108/108/108 109/109/109 
f 108/108/108 110/110/110 109/109/109 
f 111/111/111 112/112/112 113/113/113 
f 112/112/112 114/114/114 113/113/113 
f 115/115/115 116/116/116 117/117/117 
f 118/118/118 119/119/119 120/120/120 
f 121/121/121 120/120/120 119/119/119 
f 122/122/122 123/123/123 124/124/124 
f 125/125/125 126/126/126 127/127/127 
f 126/126/126 125/125/125 128/128/128 
f 129/129/129 130/130/130 131/131/131 
f 132/132/132 133/133/133 134/134/134 
f 133/133/133 135/135/135 134/134/134 
f 136/136/136 137/137/137 138/138/138 
f 137/137/137 139/139/139 138/138/138 
f 140/140/140 141/141/141 142/142/142 
f 141/141/141 143/143/143 142/142/142 
f 144/144/144 145/145/145 146/146/146 
f 147/147/147 148/148/148 149/149/149 
f 148/148/148 150/150/150 149/149/149 
f 151/151/151 152/152/152 142/142/142 
f 152/152/152 140/140/140 142/142/142 
f 153/153/153 154/154/154 155/155/155 
f 156/156/156 157/157/157 158/158/158 
f 157/157/157 159/159/159 158/158/158 
f 159/159/159 160/160/160 158/158/158 
f 161/161/161 130/130/130 129/129/129 
f 162/162/162 163/163/163 164/164/164 
f 165/165/165 155/155/155 154/154/154 
f 166/166/166 165/165/165 167/167/167 
f 165/165/165 154/154/154 167/167/167 
f 168/168/168 164/164/164 169/169/169 
f 164/164/164 163/163/163 169/169/169 
f 158/158/158 160/160/160 170/170/170 
f 171/171/171 172/172/172 173/173/173 
f 170/170/170 174/174/174 158/158/158 
f 174/174/174 175/175/175 158/158/158 
f 176/176/176 177/177/177 178/178/178 
f 177/177/177 179/179/179 178/178/178 
f 180/180/180 181/181/181 182/182/182 
f 181/181/181 183/183/183 184/184/184 
f 185/185/185 186/186/186 187/187/187 
f 186/186/186 188/188/188 187/187/187 
f 146/146/146 189/189/189 144/144/144 
f 189/189/189 190/190/190 144/144/144 
f 191/191/191 192/192/192 193/193/193 
f 192/192/192 194/194/194 193/193/193 
f 192/192/192 195/195/195 194/194/194 
f 195/195/195 196/196/196 194/194/194 
f 180/180/180 197/197/197 181/181/181 
f 198/198/198 187/187/187 199/199/199 
f 187/187/187 198/198/198 185/185/185 
f 200/200/200 201/201/201 202/202/202 
f 202/202/202 203/203/203 200/200/200 
f 204/204/204 205/205/205 197/197/197 
f 205/205/205 181/181/181 197/197/197 
f 183/183/183 181/181/181 205/205/205 
f 206/206/206 207/207/207 172/172/172 
f 207/207/207 173/173/173 172/172/172 
f 208/208/208 207/207/207 206/206/206 
f 209/209/209 210/210/210 211/211/211 
f 210/210/210 212/212/212 211/211/211 
f 213/213/213 214/214/214 215/215/215 
f 214/214/214 216/216/216 215/215/215 
f 217/217/217 198/198/198 218/218/218 
f 198/198/198 199/199/199 218/218/218 
f 219/219/219 220/220/220 221/221/221 
f 220/220/220 222/222/222 221/221/221 
f 222/222/222 223/223/223 221/221/221 
f 221/221/221 224/224/224 219/219/219 
f 225/225/225 226/226/226 227/227/227 
f 226/226/226 228/228/228 227/227/227 
f 226/226/226 229/229/229 228/228/228 
f 229/229/229 230/230/230 228/228/228 
f 231/231/231 232/232/232 233/233/233 
f 234/234/234 233/233/233 235/235/235 
f 236/236/236 233/233/233 234/234/234 
f 231/231/231 233/233/233 236/236/236 
f 233/233/233 237/237/237 235/235/235 
f 238/238/238 232/232/232 239/239/239 
f 238/238/238 233/233/233 232/232/232 
f 238/238/238 240/240/240 233/233/233 
f 241/241/241 212/212/212 210/210/210 
f 241/241/241 242/242/242 212/212/212 
f 242/242/242 243/243/243 212/212/212 
f 221/221/221 244/244/244 245/245/245 
f 245/245/245 224/224/224 221/221/221 
f 246/246/246 247/247/247 248/248/248 
f 247/247/247 249/249/249 248/248/248 
f 250/250/250 224/224/224 245/245/245 
f 251/251/251 122/122/122 252/252/252 
f 122/122/122 124/124/124 252/252/252 
f 253/253/253 254/254/254 255/255/255 
f 254/254/254 256/256/256 255/255/255 
f 256/256/256 257/257/257 255/255/255 
f 257/257/257 258/258/258 255/255/255 
f 259/259/259 117/117/117 260/260/260 
f 115/115/115 117/117/117 259/259/259 
f 261/261/261 262/262/262 263/263/263 
f 262/262/262 264/264/264 263/263/263 
f 265/265/265 266/266/266 267/267/267 
f 266/266/266 268/268/268 267/267/267 
f 269/269/269 270/270/270 271/271/271 
f 270/270/270 272/272/272 271/271/271 

