# This file is brought to you by Roblox Corporation
# Generated by Roblox Studio

mtllib hotel fence.mtl

g HotelFence1

v -215.501 2.99803 175.998 
v -215.501 14.998 175.998 
v -216.501 2.99803 175.998 
v -216.501 14.998 175.998 
v -215.501 14.998 150.498 
v -215.501 14.998 175.998 
v -215.501 2.99803 150.498 
v -215.501 2.99803 175.998 
v -216.501 14.998 150.498 
v -216.501 14.998 175.998 
v -215.501 14.998 150.498 
v -215.501 14.998 175.998 
v -216.501 2.99803 150.498 
v -216.501 2.99803 175.998 
v -216.501 14.998 150.498 
v -216.501 14.998 175.998 
v -215.501 2.99803 150.498 
v -215.501 2.99803 175.998 
v -216.501 2.99803 150.498 
v -216.501 2.99803 175.998 
v -23.5008 2.74803 -313.5 
v -23.5008 2.74803 -313.502 
v -23.4992 2.74803 -313.5 
v -23.5008 14.998 -313.502 
v -23.5008 14.998 -313.5 
v -23.4992 14.998 -313.5 
v -24.5008 14.998 -313.5 
v -23.5008 14.998 -313.5 
v -24.5008 14.998 -313.502 
v -23.5008 14.998 -313.502 
v -341.499 14.998 -313.5 
v -24.5008 14.998 -313.502 
v -23.4992 14.998 -314.5 
v -23.4992 2.74803 -313.507 
v -23.4992 14.998 -314.5 
v -23.4992 2.74803 -313.5 
v -23.4992 2.74803 -314.5 
v -23.4992 14.998 -313.5 
v -23.4992 2.74803 -314.5 
v -341.499 2.74803 -314.5 
v -23.4992 14.998 -314.5 
v -341.499 14.998 -314.5 
v -23.4992 2.74803 -313.507 
v -24.5008 2.74803 -313.502 
v -23.4992 2.74803 -314.5 
v -341.499 2.74803 -313.5 
v -341.499 2.74803 -314.5 
v -341.499 2.74803 -313.5 
v -341.499 14.998 -313.5 
v -341.499 2.74803 -314.5 
v -341.499 14.998 -314.5 
v -341.499 14.998 -314.5 
v -24.5008 14.998 -313.5 
v -24.5008 2.74803 -313.5 
v -24.5008 2.74803 -313.5 
v -24.5008 14.998 -313.5 
v -341.499 2.74803 -313.5 
v -341.499 14.998 -313.5 
v -23.5008 2.74803 -313.5 
v -24.5008 2.74803 -313.5 
v -23.5008 2.74803 -313.502 
v -24.5008 2.74803 -313.502 
v -23.5008 14.998 -313.5 
v -23.5008 2.74803 -313.5 
v -23.4992 14.998 -313.5 
v -23.4992 2.74803 -313.5 
v -23.5008 14.998 -313.5 
v -23.5008 14.998 176.998 
v -23.5008 2.74803 -313.5 
v -23.5008 2.74803 176.998 
v -24.5008 14.9953 -162.999 
v -24.5008 14.9953 -161.999 
v -24.5008 14.998 -313.5 
v -24.5008 2.74803 -313.5 
v -24.5008 2.74803 -162.999 
v -24.5008 14.998 176.998 
v -23.5008 14.998 176.998 
v -24.5008 2.74803 -161.995 
v -24.5008 2.74803 176.998 
v -24.5008 14.998 176.998 
v -23.5008 2.74803 176.998 
v -23.5008 14.998 176.998 
v -24.5008 2.74803 176.998 
v -24.5008 14.998 176.998 
v -24.5008 2.74803 -161.999 
v -24.5008 2.74803 176.998 
v -24.5008 2.74803 -161.995 
v -24.5008 2.74803 -161.999 
v -23.5008 2.74803 176.998 
v -24.5008 2.74803 -162.999 
v -24.5008 2.74803 -161.999 
v -24.5008 2.74529 -162.999 
v -24.5008 2.74529 -161.999 
v -24.5008 2.74803 -162.999 
v -24.5008 2.74803 -162.999 
v -24.5008 2.74803 -162.999 
v -24.5008 2.74529 -162.999 
v -50.0008 2.74529 -162.999 
v -24.5008 2.74803 -162.999 
v -24.5008 14.9953 -162.999 
v -50.0008 14.9953 -162.999 
v -50.0008 2.74529 -162.999 
v -24.5008 2.74529 -162.999 
v -50.0008 2.74529 -161.999 
v -24.5008 2.74529 -161.999 
v -50.0008 2.74529 -161.999 
v -50.0008 14.9953 -161.999 
v -50.0008 2.74529 -162.999 
v -50.0008 14.9953 -162.999 
v -24.5008 14.9953 -161.999 
v -24.5008 14.9953 -162.999 
v -50.0008 14.9953 -161.999 
v -50.0008 14.9953 -162.999 
v -24.5008 2.74803 -161.999 
v -24.5008 2.74529 -161.999 
v -24.5008 2.74803 -161.999 
v -50.0008 2.74529 -161.999 
v -24.5008 2.74803 -161.999 
v -24.5008 2.74803 175.998 
v -24.5008 14.998 175.998 
v -24.5008 2.74803 176.998 
v -24.5008 14.998 176.998 
v -341.501 14.998 175.998 
v -24.5008 14.998 175.998 
v -341.501 2.74803 175.998 
v -24.5008 2.74803 175.998 
v -341.501 14.998 176.998 
v -24.5008 14.998 176.998 
v -341.501 14.998 175.998 
v -24.5008 14.998 175.998 
v -341.501 2.74803 176.998 
v -24.5008 2.74803 176.998 
v -341.501 14.998 176.998 
v -24.5008 14.998 176.998 
v -341.501 2.74803 175.998 
v -24.5008 2.74803 175.998 
v -341.501 2.74803 176.998 
v -24.5008 2.74803 176.998 
v -216.501 2.99803 150.498 
v -216.501 14.998 150.498 
v -215.501 2.99803 150.498 
v -215.501 14.998 150.498 
v -341.501 2.74803 176.998 
v -341.501 14.998 176.998 
v -341.501 2.74803 175.998 
v -341.501 14.998 175.998 
v -24.5008 14.9953 -161.999 
v -50.0008 14.9953 -161.999 

vn 0 0 1 
vn 0 0 1 
vn 0 0 1 
vn 0 0 1 
vn 1 0 0 
vn 1 0 0 
vn 1 0 0 
vn 1 0 0 
vn 0 1 0 
vn 0 1 0 
vn 0 1 0 
vn 0 1 0 
vn -1 0 0 
vn -1 0 0 
vn -1 0 0 
vn -1 0 0 
vn 0 -1 0 
vn 0 -1 0 
vn 0 -1 0 
vn 0 -1 0 
vn 0 -1 0 
vn 0 -1 0 
vn 0 -1 0 
vn 0 1 0 
vn 0 1 0 
vn 0 1 0 
vn 0 1 0 
vn 0 1 0 
vn 0 1 0 
vn 0 1 0 
vn 0 1 0 
vn 0 1 0 
vn 0 1 0 
vn 1 0 0 
vn 1 0 0 
vn 1 0 0 
vn 1 0 0 
vn 1 0 0 
vn 0 0 -1 
vn 0 0 -1 
vn 0 0 -1 
vn 0 0 -1 
vn 0 -1 0 
vn 0 -1 0 
vn 0 -1 0 
vn 0 -1 0 
vn 0 -1 0 
vn -1 0 0 
vn -1 0 0 
vn -1 0 0 
vn -1 0 0 
vn 0 1 0 
vn 0 1 0 
vn 0 -1 0 
vn 0 0 1 
vn 0 0 1 
vn 0 0 1 
vn 0 0 1 
vn 0 -1 0 
vn 0 -1 0 
vn 0 -1 0 
vn 0 -1 0 
vn 0 0 1 
vn 0 0 1 
vn 0 0 1 
vn 0 0 1 
vn 1 0 0 
vn 1 0 0 
vn 1 0 0 
vn 1 0 0 
vn -1 0 0 
vn -1 0 0 
vn -1 0 0 
vn -1 0 0 
vn -1 0 0 
vn 0 1 0 
vn 0 1 0 
vn -1 0 0 
vn -1 0 0 
vn -1 0 0 
vn 0 0 1 
vn 0 0 1 
vn 0 0 1 
vn 0 0 1 
vn 0 -1 0 
vn 0 -1 0 
vn 0 -1 0 
vn 0 -1 0 
vn 0 -1 0 
vn 1 0 0 
vn 1 0 0 
vn 1 0 0 
vn 1 0 0 
vn 0 -1 0 
vn 0 -1 0 
vn 0 0 -1 
vn 0 0 -1 
vn 0 0 -1 
vn 0 0 -1 
vn 0 0 -1 
vn 0 0 -1 
vn 0 -1 0 
vn 0 -1 0 
vn 0 -1 0 
vn 0 -1 0 
vn -1 0 0 
vn -1 0 0 
vn -1 0 0 
vn -1 0 0 
vn 0 1 0 
vn 0 1 0 
vn 0 1 0 
vn 0 1 0 
vn -1 0 0 
vn 0 0 1 
vn 0 0 1 
vn 0 0 1 
vn 0 0 1 
vn 1 0 0 
vn 1 0 0 
vn 1 0 0 
vn 1 0 0 
vn 0 0 -1 
vn 0 0 -1 
vn 0 0 -1 
vn 0 0 -1 
vn 0 1 0 
vn 0 1 0 
vn 0 1 0 
vn 0 1 0 
vn 0 0 1 
vn 0 0 1 
vn 0 0 1 
vn 0 0 1 
vn 0 -1 0 
vn 0 -1 0 
vn 0 -1 0 
vn 0 -1 0 
vn 0 0 -1 
vn 0 0 -1 
vn 0 0 -1 
vn 0 0 -1 
vn -1 0 0 
vn -1 0 0 
vn -1 0 0 
vn -1 0 0 
vn 0 0 1 
vn 0 0 1 

vt -213.429 144.571 
vt -213.429 146.071 
vt -213.554 144.571 
vt -213.554 146.071 
vt -236.71 146.071 
vt -239.897 146.071 
vt -236.71 144.571 
vt -239.897 144.571 
vt -236.71 149.556 
vt -239.897 149.556 
vt -236.71 149.431 
vt -239.897 149.431 
vt -181.897 144.571 
vt -178.71 144.571 
vt -181.897 146.071 
vt -178.71 146.071 
vt -181.897 149.431 
vt -178.71 149.431 
vt -181.897 149.556 
vt -178.71 149.556 
vt -239.897 125.431 
vt -239.897 125.431 
vt -239.897 125.43 
vt -178.71 125.431 
vt -178.71 125.431 
vt -178.71 125.43 
vt -178.71 125.556 
vt -178.71 125.431 
vt -178.71 125.556 
vt -178.71 125.431 
vt -178.71 165.18 
vt -178.71 125.556 
vt -178.585 125.43 
vt -178.709 144.54 
vt -178.585 146.071 
vt -178.71 144.54 
vt -178.585 144.54 
vt -178.71 146.071 
vt -229.179 144.54 
vt -189.429 144.54 
vt -229.179 146.071 
vt -189.429 146.071 
vt -239.898 125.43 
vt -239.897 125.556 
vt -240.022 125.43 
vt -239.897 165.18 
vt -240.022 165.18 
vt -239.897 144.54 
vt -239.897 146.071 
vt -240.022 144.54 
vt -240.022 146.071 
vt -178.585 165.18 
vt -178.71 125.556 
vt -239.897 125.556 
vt -189.554 144.54 
vt -189.554 146.071 
vt -229.178 144.54 
vt -229.178 146.071 
vt -239.897 125.431 
vt -239.897 125.556 
vt -239.897 125.431 
vt -239.897 125.556 
vt -189.429 146.071 
vt -189.429 144.54 
vt -189.428 146.071 
vt -189.428 144.54 
vt -178.71 146.071 
vt -240.022 146.071 
vt -178.71 144.54 
vt -240.022 144.54 
vt -221.085 146.071 
vt -220.96 146.071 
vt -239.897 146.071 
vt -239.897 144.54 
vt -221.085 144.54 
vt -240.022 125.556 
vt -240.022 125.431 
vt -220.959 144.54 
vt -178.585 144.54 
vt -178.585 146.071 
vt -189.429 144.54 
vt -189.429 146.071 
vt -189.554 144.54 
vt -189.554 146.071 
vt -220.96 125.556 
vt -178.585 125.556 
vt -220.959 125.556 
vt -220.96 125.556 
vt -178.585 125.431 
vt -197.523 144.54 
vt -197.648 144.54 
vt -197.523 144.54 
vt -197.648 144.54 
vt -221.085 125.556 
vt -221.085 125.556 
vt -229.053 144.54 
vt -229.053 144.54 
vt -225.866 144.54 
vt -229.053 144.54 
vt -229.053 146.071 
vt -225.866 146.071 
vt -221.085 128.743 
vt -221.085 125.556 
vt -220.96 128.743 
vt -220.96 125.556 
vt -220.96 144.54 
vt -220.96 146.071 
vt -221.085 144.54 
vt -221.085 146.071 
vt -197.648 125.556 
vt -197.523 125.556 
vt -197.648 128.743 
vt -197.523 128.743 
vt -220.96 144.54 
vt -189.554 144.54 
vt -189.554 144.54 
vt -192.741 144.54 
vt -189.554 144.54 
vt -239.897 144.54 
vt -239.897 146.071 
vt -240.022 144.54 
vt -240.022 146.071 
vt -189.428 146.071 
vt -229.053 146.071 
vt -189.428 144.54 
vt -229.053 144.54 
vt -240.022 165.181 
vt -240.022 125.556 
vt -239.897 165.181 
vt -239.897 125.556 
vt -229.179 144.54 
vt -189.554 144.54 
vt -229.179 146.071 
vt -189.554 146.071 
vt -178.71 165.181 
vt -178.71 125.556 
vt -178.585 165.181 
vt -178.585 125.556 
vt -205.053 144.571 
vt -205.053 146.071 
vt -205.178 144.571 
vt -205.178 146.071 
vt -178.585 144.54 
vt -178.585 146.071 
vt -178.71 144.54 
vt -178.71 146.071 
vt -189.554 146.071 
vt -192.741 146.071 

usemtl HotelFence1Mtl

f 1/1/1 2/2/2 3/3/3 
f 2/2/2 4/4/4 3/3/3 
f 5/5/5 6/6/6 7/7/7 
f 6/6/6 8/8/8 7/7/7 
f 9/9/9 10/10/10 11/11/11 
f 10/10/10 12/12/12 11/11/11 
f 13/13/13 14/14/14 15/15/15 
f 14/14/14 16/16/16 15/15/15 
f 17/17/17 18/18/18 19/19/19 
f 18/18/18 20/20/20 19/19/19 
f 21/21/21 22/22/22 23/23/23 
f 24/24/24 25/25/25 26/26/26 
f 27/27/27 28/28/28 29/29/29 
f 28/28/28 30/30/30 29/29/29 
f 31/31/31 32/32/32 33/33/33 
f 32/32/32 24/24/24 33/33/33 
f 24/24/24 26/26/26 33/33/33 
f 34/34/34 35/35/35 36/36/36 
f 37/37/37 35/35/35 34/34/34 
f 35/35/35 38/38/38 36/36/36 
f 39/39/39 40/40/40 41/41/41 
f 42/42/42 41/41/41 40/40/40 
f 43/43/43 22/22/22 44/44/44 
f 23/23/23 22/22/22 43/43/43 
f 44/44/44 45/45/45 43/43/43 
f 44/44/44 46/46/46 45/45/45 
f 46/46/46 47/47/47 45/45/45 
f 48/48/48 49/49/49 50/50/50 
f 49/49/49 51/51/51 50/50/50 
f 33/33/33 52/52/52 31/31/31 
f 32/32/32 31/31/31 53/53/53 
f 54/54/54 46/46/46 44/44/44 
f 55/55/55 56/56/56 57/57/57 
f 56/56/56 58/58/58 57/57/57 
f 59/59/59 60/60/60 61/61/61 
f 60/60/60 62/62/62 61/61/61 
f 63/63/63 64/64/64 65/65/65 
f 64/64/64 66/66/66 65/65/65 
f 67/67/67 68/68/68 69/69/69 
f 68/68/68 70/70/70 69/69/69 
f 71/71/71 72/72/72 73/73/73 
f 74/74/74 75/75/75 73/73/73 
f 75/75/75 71/71/71 73/73/73 
f 27/27/27 76/76/76 28/28/28 
f 76/76/76 77/77/77 28/28/28 
f 78/78/78 79/79/79 80/80/80 
f 81/81/81 82/82/82 83/83/83 
f 82/82/82 84/84/84 83/83/83 
f 85/85/85 86/86/86 87/87/87 
f 87/87/87 88/88/88 85/85/85 
f 89/89/89 86/86/86 59/59/59 
f 86/86/86 85/85/85 59/59/59 
f 85/85/85 60/60/60 59/59/59 
f 90/90/90 91/91/91 92/92/92 
f 91/91/91 93/93/93 92/92/92 
f 85/85/85 94/94/94 60/60/60 
f 94/94/94 95/95/95 60/60/60 
f 96/96/96 97/97/97 98/98/98 
f 99/99/99 97/97/97 96/96/96 
f 100/100/100 96/96/96 101/101/101 
f 96/96/96 98/98/98 101/101/101 
f 102/102/102 103/103/103 104/104/104 
f 103/103/103 105/105/105 104/104/104 
f 106/106/106 107/107/107 108/108/108 
f 109/109/109 108/108/108 107/107/107 
f 110/110/110 111/111/111 112/112/112 
f 111/111/111 113/113/113 112/112/112 
f 114/114/114 78/78/78 72/72/72 
f 78/78/78 80/80/80 72/72/72 
f 80/80/80 73/73/73 72/72/72 
f 115/115/115 116/116/116 117/117/117 
f 116/116/116 118/118/118 117/117/117 
f 119/119/119 120/120/120 121/121/121 
f 120/120/120 122/122/122 121/121/121 
f 123/123/123 124/124/124 125/125/125 
f 124/124/124 126/126/126 125/125/125 
f 127/127/127 128/128/128 129/129/129 
f 128/128/128 130/130/130 129/129/129 
f 131/131/131 132/132/132 133/133/133 
f 132/132/132 134/134/134 133/133/133 
f 135/135/135 136/136/136 137/137/137 
f 136/136/136 138/138/138 137/137/137 
f 139/139/139 140/140/140 141/141/141 
f 140/140/140 142/142/142 141/141/141 
f 143/143/143 144/144/144 145/145/145 
f 144/144/144 146/146/146 145/145/145 
f 118/118/118 147/147/147 117/117/117 
f 147/147/147 148/148/148 117/117/117 

